<svg id="svg" version="1.1" xmlns="http://www.w3.org/2000/svg" xmlns:xlink="http://www.w3.org/1999/xlink" width="400" height="257.5" viewBox="0, 0, 400,257.5"><g id="svgg"><path id="path0" d="M200.832 63.074 C 199.873 63.341,198.308 63.639,197.355 63.736 C 196.402 63.833,194.694 64.127,193.561 64.389 C 192.428 64.651,190.747 64.939,189.826 65.031 C 188.209 65.191,185.533 65.829,183.129 66.627 C 182.492 66.839,181.217 67.227,180.296 67.488 C 179.375 67.750,178.042 68.161,177.334 68.403 C 176.626 68.644,175.293 69.099,174.372 69.414 C 173.451 69.729,172.118 70.184,171.410 70.425 C 170.702 70.667,169.369 71.081,168.448 71.346 C 167.527 71.611,165.731 72.134,164.456 72.507 C 163.181 72.881,161.500 73.353,160.721 73.557 C 159.942 73.761,158.493 74.153,157.502 74.428 C 156.510 74.703,155.061 75.020,154.282 75.133 C 152.925 75.329,152.862 75.373,152.785 76.168 C 152.703 77.016,151.288 78.247,149.880 78.694 C 149.558 78.796,148.776 79.155,148.144 79.491 C 147.511 79.828,146.831 80.103,146.631 80.103 C 146.432 80.103,145.783 80.322,145.189 80.589 C 144.594 80.856,143.703 81.160,143.207 81.264 C 142.711 81.369,141.900 81.655,141.404 81.901 C 140.908 82.147,140.155 82.431,139.730 82.533 C 139.305 82.635,138.783 82.867,138.571 83.049 C 138.358 83.230,137.836 83.495,137.411 83.637 C 136.593 83.910,135.040 84.864,133.883 85.803 C 133.500 86.113,133.092 86.435,132.976 86.519 C 129.721 88.854,127.656 95.183,127.799 102.382 C 127.845 104.649,127.783 107.431,127.663 108.564 L 127.445 110.625 128.367 111.827 C 129.258 112.988,130.753 114.161,132.467 115.041 C 133.436 115.539,134.863 116.981,135.089 117.692 C 135.275 118.280,138.044 119.883,139.343 120.156 C 139.839 120.260,140.540 120.496,140.902 120.681 C 141.263 120.865,142.886 121.197,144.507 121.417 C 146.129 121.638,148.268 121.934,149.259 122.075 C 150.251 122.215,154.134 122.447,157.888 122.589 C 164.922 122.856,170.127 123.549,171.928 124.458 C 172.351 124.672,173.046 124.926,173.471 125.023 C 174.352 125.223,175.047 125.537,179.524 127.755 C 187.042 131.481,187.634 132.063,186.576 134.683 C 184.528 139.753,179.247 144.333,170.509 148.618 C 165.268 151.187,163.320 152.010,160.994 152.636 C 160.222 152.844,159.456 153.126,159.290 153.264 C 159.125 153.401,158.309 153.639,157.478 153.793 C 156.647 153.947,155.660 154.231,155.285 154.425 C 154.911 154.618,153.807 154.901,152.833 155.053 C 151.859 155.205,150.541 155.495,149.903 155.698 C 148.820 156.043,147.380 156.227,140.676 156.873 C 137.223 157.206,135.005 158.437,134.956 160.048 C 134.951 160.206,134.723 160.798,134.449 161.365 C 133.827 162.654,133.746 166.678,134.304 168.595 C 134.508 169.293,134.802 170.587,134.959 171.470 C 135.115 172.353,135.468 173.570,135.742 174.174 C 136.017 174.779,136.244 175.507,136.247 175.793 C 136.250 176.078,136.475 176.727,136.747 177.235 C 137.019 177.742,137.364 178.612,137.514 179.168 C 137.928 180.705,139.205 182.289,140.189 182.485 C 140.645 182.576,141.758 182.889,142.663 183.180 C 145.249 184.013,151.878 183.986,153.509 183.135 C 154.474 182.632,155.253 182.497,158.146 182.326 C 160.058 182.214,162.192 181.943,162.887 181.724 C 163.582 181.505,164.420 181.326,164.749 181.326 C 166.549 181.326,176.076 176.787,180.305 173.914 C 180.664 173.670,181.342 173.239,181.811 172.956 C 182.280 172.672,183.047 172.151,183.515 171.797 C 183.983 171.442,184.638 170.955,184.971 170.714 C 190.208 166.914,196.801 160.906,200.138 156.892 C 200.771 156.131,201.495 155.262,201.749 154.960 C 202.377 154.211,204.293 151.222,204.659 150.419 C 207.091 145.082,207.543 134.698,205.536 130.275 C 205.260 129.667,205.031 128.962,205.028 128.708 C 205.022 128.181,203.532 125.338,202.404 123.698 C 201.550 122.456,198.754 120.026,198.180 120.026 C 197.634 120.026,196.838 118.579,196.482 116.940 C 195.648 113.099,191.904 107.811,188.796 106.084 C 188.300 105.808,187.431 105.303,186.864 104.961 C 186.297 104.619,185.660 104.262,185.448 104.169 C 185.235 104.075,184.344 103.664,183.468 103.255 C 182.591 102.846,181.722 102.508,181.536 102.503 C 181.350 102.499,180.618 102.210,179.910 101.862 C 179.202 101.513,178.431 101.227,178.197 101.226 C 177.963 101.224,177.152 100.935,176.394 100.582 C 175.636 100.229,174.810 99.940,174.559 99.938 C 174.079 99.935,173.651 99.097,173.418 97.707 C 173.260 96.758,173.605 96.495,175.399 96.198 C 176.035 96.092,177.012 95.845,177.570 95.648 C 178.128 95.451,179.405 95.164,180.407 95.009 C 181.408 94.855,182.436 94.618,182.691 94.483 C 182.945 94.349,184.220 94.020,185.524 93.754 C 186.828 93.488,188.528 93.089,189.303 92.868 C 190.077 92.647,190.961 92.466,191.267 92.466 C 191.572 92.466,192.329 92.285,192.949 92.065 C 196.268 90.882,198.915 90.838,200.575 91.937 L 201.800 92.749 205.536 92.590 C 209.542 92.419,213.277 92.141,217.706 91.684 C 220.181 91.428,220.724 91.452,222.857 91.913 C 228.368 93.103,230.102 93.123,231.722 92.016 C 232.124 91.741,232.917 91.226,233.484 90.871 C 234.050 90.517,235.180 89.797,235.995 89.272 L 237.476 88.318 237.476 86.033 C 237.476 83.749,236.541 80.503,235.546 79.330 C 235.366 79.118,235.144 78.698,235.053 78.398 C 234.962 78.098,234.658 77.646,234.378 77.393 C 234.099 77.140,233.870 76.832,233.870 76.709 C 233.870 76.492,232.477 74.372,231.853 73.639 C 231.218 72.893,230.118 71.366,229.620 70.540 C 229.337 70.070,228.850 69.277,228.538 68.777 C 227.914 67.778,227.771 67.493,227.278 66.262 C 226.839 65.165,224.736 64.203,221.764 63.741 C 220.560 63.553,219.053 63.265,218.416 63.100 C 216.197 62.526,202.872 62.506,200.832 63.074 M271.088 94.707 C 270.254 94.901,266.796 96.640,265.679 97.426 C 265.113 97.825,264.234 98.426,263.726 98.762 C 262.422 99.625,260.466 101.890,259.065 104.160 C 258.444 105.165,257.236 108.289,256.366 111.140 C 256.149 111.848,255.751 112.899,255.481 113.475 C 255.211 114.051,254.990 114.674,254.990 114.859 C 254.990 115.275,253.885 117.927,253.026 119.571 C 252.459 120.657,252.394 121.076,252.434 123.390 C 252.459 124.819,252.377 126.085,252.254 126.203 C 251.764 126.670,249.075 127.253,246.247 127.505 C 244.610 127.651,242.344 127.938,241.211 128.143 C 240.077 128.349,237.493 128.635,235.467 128.780 C 233.441 128.924,230.718 129.215,229.414 129.427 C 228.111 129.638,226.449 129.812,225.721 129.812 C 224.072 129.814,223.503 130.269,222.938 132.037 C 222.706 132.764,222.289 133.564,222.011 133.815 C 221.415 134.355,221.354 135.555,221.859 136.800 C 222.053 137.278,222.287 138.796,222.379 140.172 C 222.702 145.004,224.596 148.399,228.110 150.442 L 229.620 151.320 234.514 151.298 C 238.606 151.279,239.780 151.184,241.682 150.718 C 244.087 150.129,246.101 149.996,246.356 150.410 C 246.563 150.744,246.042 155.738,245.564 158.000 C 245.353 159.001,245.016 162.761,244.815 166.356 C 244.397 173.857,244.419 173.980,246.356 174.959 C 253.767 178.705,254.000 178.789,257.061 178.807 C 262.482 178.839,268.519 172.593,270.063 165.357 C 270.169 164.862,270.472 164.052,270.736 163.558 C 271.001 163.065,271.217 162.418,271.217 162.123 C 271.217 161.827,271.507 160.617,271.861 159.433 C 272.215 158.250,272.505 156.977,272.505 156.603 C 272.505 156.230,272.726 155.062,272.997 154.009 C 273.267 152.955,273.568 151.374,273.665 150.495 C 273.924 148.142,273.184 148.348,284.057 147.599 C 286.231 147.450,288.723 147.162,289.594 146.961 C 290.466 146.760,292.136 146.464,293.307 146.305 C 294.478 146.145,295.913 145.846,296.496 145.640 C 297.079 145.435,298.295 145.148,299.199 145.004 C 300.103 144.860,301.218 144.574,301.677 144.370 C 302.136 144.165,303.181 143.869,303.999 143.711 C 306.140 143.299,306.356 142.880,306.182 139.474 C 306.035 136.584,305.753 135.924,304.240 134.922 C 303.856 134.668,302.730 133.874,301.739 133.158 C 295.510 128.661,289.452 126.558,282.366 126.434 C 280.073 126.394,279.058 126.159,279.128 125.683 C 279.226 125.013,280.268 121.978,280.642 121.274 C 281.138 120.339,281.098 119.706,280.466 118.493 C 279.823 117.261,279.721 111.828,280.298 109.594 C 280.644 108.255,280.223 106.375,279.345 105.344 C 279.164 105.132,278.585 104.177,278.058 103.222 C 277.530 102.267,276.991 101.419,276.859 101.337 C 276.726 101.255,276.446 100.819,276.235 100.369 C 276.024 99.918,275.533 99.072,275.144 98.489 C 274.755 97.906,274.123 96.960,273.739 96.386 C 273.098 95.428,272.067 94.485,271.739 94.557 C 271.664 94.573,271.372 94.641,271.088 94.707 " stroke="none" fill="#dadada" fill-rule="evenodd"></path><path id="path1" d="M0.000 128.783 L 0.000 257.566 200.000 257.566 L 400.000 257.566 400.000 128.783 L 400.000 0.000 200.000 0.000 L 0.000 0.000 0.000 128.783 M218.416 63.100 C 219.053 63.265,220.560 63.553,221.764 63.741 C 224.736 64.203,226.839 65.165,227.278 66.262 C 227.771 67.493,227.914 67.778,228.538 68.777 C 228.850 69.277,229.337 70.070,229.620 70.540 C 230.118 71.366,231.218 72.893,231.853 73.639 C 232.477 74.372,233.870 76.492,233.870 76.709 C 233.870 76.832,234.099 77.140,234.378 77.393 C 234.658 77.646,234.962 78.098,235.053 78.398 C 235.144 78.698,235.366 79.118,235.546 79.330 C 236.541 80.503,237.476 83.749,237.476 86.033 L 237.476 88.318 235.995 89.272 C 235.180 89.797,234.050 90.517,233.484 90.871 C 232.917 91.226,232.124 91.741,231.722 92.016 C 230.102 93.123,228.368 93.103,222.857 91.913 C 220.724 91.452,220.181 91.428,217.706 91.684 C 213.277 92.141,209.542 92.419,205.536 92.590 L 201.800 92.749 200.575 91.937 C 198.915 90.838,196.268 90.882,192.949 92.065 C 192.329 92.285,191.572 92.466,191.267 92.466 C 190.961 92.466,190.077 92.647,189.303 92.868 C 188.528 93.089,186.828 93.488,185.524 93.754 C 184.220 94.020,182.945 94.349,182.691 94.483 C 182.436 94.618,181.408 94.855,180.407 95.009 C 179.405 95.164,178.128 95.451,177.570 95.648 C 177.012 95.845,176.035 96.092,175.399 96.198 C 173.605 96.495,173.260 96.758,173.418 97.707 C 173.651 99.097,174.079 99.935,174.559 99.938 C 174.810 99.940,175.636 100.229,176.394 100.582 C 177.152 100.935,177.963 101.224,178.197 101.226 C 178.431 101.227,179.202 101.513,179.910 101.862 C 180.618 102.210,181.350 102.499,181.536 102.503 C 181.722 102.508,182.591 102.846,183.468 103.255 C 184.344 103.664,185.235 104.075,185.448 104.169 C 185.660 104.262,186.297 104.619,186.864 104.961 C 187.431 105.303,188.300 105.808,188.796 106.084 C 191.904 107.811,195.648 113.099,196.482 116.940 C 196.838 118.579,197.634 120.026,198.180 120.026 C 198.754 120.026,201.550 122.456,202.404 123.698 C 203.532 125.338,205.022 128.181,205.028 128.708 C 205.031 128.962,205.260 129.667,205.536 130.275 C 207.543 134.698,207.091 145.082,204.659 150.419 C 204.293 151.222,202.377 154.211,201.749 154.960 C 201.495 155.262,200.771 156.131,200.138 156.892 C 196.801 160.906,190.208 166.914,184.971 170.714 C 184.638 170.955,183.983 171.442,183.515 171.797 C 183.047 172.151,182.280 172.672,181.811 172.956 C 181.342 173.239,180.664 173.670,180.305 173.914 C 178.012 175.472,173.772 177.750,169.865 179.524 C 167.830 180.448,165.336 181.326,164.749 181.326 C 164.420 181.326,163.582 181.505,162.887 181.724 C 162.192 181.943,160.058 182.214,158.146 182.326 C 155.253 182.497,154.474 182.632,153.509 183.135 C 151.878 183.986,145.249 184.013,142.663 183.180 C 141.758 182.889,140.645 182.576,140.189 182.485 C 139.205 182.289,137.928 180.705,137.514 179.168 C 137.364 178.612,137.019 177.742,136.747 177.235 C 136.475 176.727,136.250 176.078,136.247 175.793 C 136.244 175.507,136.017 174.779,135.742 174.174 C 135.468 173.570,135.115 172.353,134.959 171.470 C 134.802 170.587,134.508 169.293,134.304 168.595 C 133.746 166.678,133.827 162.654,134.449 161.365 C 134.723 160.798,134.951 160.206,134.956 160.048 C 135.005 158.437,137.223 157.206,140.676 156.873 C 147.380 156.227,148.820 156.043,149.903 155.698 C 150.541 155.495,151.859 155.205,152.833 155.053 C 153.807 154.901,154.911 154.618,155.285 154.425 C 155.660 154.231,156.647 153.947,157.478 153.793 C 158.309 153.639,159.125 153.401,159.290 153.264 C 159.456 153.126,160.222 152.844,160.994 152.636 C 165.030 151.549,172.723 147.817,177.719 144.521 C 182.856 141.132,187.819 134.692,186.985 132.497 C 186.639 131.587,184.457 130.200,179.524 127.755 C 175.047 125.537,174.352 125.223,173.471 125.023 C 173.046 124.926,172.351 124.672,171.928 124.458 C 170.127 123.549,164.922 122.856,157.888 122.589 C 154.134 122.447,150.251 122.215,149.259 122.075 C 148.268 121.934,146.129 121.638,144.507 121.417 C 142.886 121.197,141.263 120.865,140.902 120.681 C 140.540 120.496,139.839 120.260,139.343 120.156 C 138.044 119.883,135.275 118.280,135.089 117.692 C 134.863 116.981,133.436 115.539,132.467 115.041 C 130.753 114.161,129.258 112.988,128.367 111.827 L 127.445 110.625 127.663 108.564 C 127.783 107.431,127.845 104.649,127.799 102.382 C 127.656 95.183,129.721 88.854,132.976 86.519 C 133.092 86.435,133.500 86.113,133.883 85.803 C 135.040 84.864,136.593 83.910,137.411 83.637 C 137.836 83.495,138.358 83.230,138.571 83.049 C 138.783 82.867,139.305 82.635,139.730 82.533 C 140.155 82.431,140.908 82.147,141.404 81.901 C 141.900 81.655,142.711 81.369,143.207 81.264 C 143.703 81.160,144.594 80.856,145.189 80.589 C 145.783 80.322,146.432 80.103,146.631 80.103 C 146.831 80.103,147.511 79.828,148.144 79.491 C 148.776 79.155,149.558 78.796,149.880 78.694 C 151.288 78.247,152.703 77.016,152.785 76.168 C 152.862 75.373,152.925 75.329,154.282 75.133 C 155.061 75.020,156.510 74.703,157.502 74.428 C 158.493 74.153,159.942 73.761,160.721 73.557 C 161.500 73.353,163.181 72.881,164.456 72.507 C 165.731 72.134,167.527 71.611,168.448 71.346 C 169.369 71.081,170.702 70.667,171.410 70.425 C 172.118 70.184,173.451 69.729,174.372 69.414 C 175.293 69.099,176.626 68.644,177.334 68.403 C 178.042 68.161,179.375 67.750,180.296 67.488 C 181.217 67.227,182.492 66.839,183.129 66.627 C 185.533 65.829,188.209 65.191,189.826 65.031 C 190.747 64.939,192.428 64.651,193.561 64.389 C 194.694 64.127,196.402 63.833,197.355 63.736 C 198.308 63.639,199.873 63.341,200.832 63.074 C 202.872 62.506,216.197 62.526,218.416 63.100 M272.458 94.935 C 272.779 95.160,273.355 95.813,273.739 96.386 C 274.123 96.960,274.755 97.906,275.144 98.489 C 275.533 99.072,276.024 99.918,276.235 100.369 C 276.446 100.819,276.726 101.255,276.859 101.337 C 276.991 101.419,277.530 102.267,278.058 103.222 C 278.585 104.177,279.164 105.132,279.345 105.344 C 280.223 106.375,280.644 108.255,280.298 109.594 C 279.721 111.828,279.823 117.261,280.466 118.493 C 281.098 119.706,281.138 120.339,280.642 121.274 C 280.268 121.978,279.226 125.013,279.128 125.683 C 279.058 126.159,280.073 126.394,282.366 126.434 C 289.452 126.558,295.510 128.661,301.739 133.158 C 302.730 133.874,303.856 134.668,304.240 134.922 C 305.753 135.924,306.035 136.584,306.182 139.474 C 306.356 142.880,306.140 143.299,303.999 143.711 C 303.181 143.869,302.136 144.165,301.677 144.370 C 301.218 144.574,300.103 144.860,299.199 145.004 C 298.295 145.148,297.079 145.435,296.496 145.640 C 295.913 145.846,294.478 146.145,293.307 146.305 C 292.136 146.464,290.466 146.760,289.594 146.961 C 288.723 147.162,286.231 147.450,284.057 147.599 C 273.184 148.348,273.924 148.142,273.665 150.495 C 273.568 151.374,273.267 152.955,272.997 154.009 C 272.726 155.062,272.505 156.230,272.505 156.603 C 272.505 156.977,272.215 158.250,271.861 159.433 C 271.507 160.617,271.217 161.827,271.217 162.123 C 271.217 162.418,271.001 163.065,270.736 163.558 C 270.472 164.052,270.169 164.862,270.063 165.357 C 269.957 165.853,269.584 166.896,269.234 167.675 C 264.125 179.042,258.979 181.324,249.372 176.481 C 243.894 173.720,244.348 174.729,244.815 166.356 C 245.016 162.761,245.353 159.001,245.564 158.000 C 246.042 155.738,246.563 150.744,246.356 150.410 C 246.101 149.996,244.087 150.129,241.682 150.718 C 239.780 151.184,238.606 151.279,234.514 151.298 L 229.620 151.320 228.110 150.442 C 224.596 148.399,222.702 145.004,222.379 140.172 C 222.287 138.796,222.053 137.278,221.859 136.800 C 221.354 135.555,221.415 134.355,222.011 133.815 C 222.289 133.564,222.706 132.764,222.938 132.037 C 223.503 130.269,224.072 129.814,225.721 129.812 C 226.449 129.812,228.111 129.638,229.414 129.427 C 230.718 129.215,233.441 128.924,235.467 128.780 C 237.493 128.635,240.077 128.349,241.211 128.143 C 242.344 127.938,244.610 127.651,246.247 127.505 C 249.075 127.253,251.764 126.670,252.254 126.203 C 252.377 126.085,252.459 124.819,252.434 123.390 C 252.394 121.076,252.459 120.657,253.026 119.571 C 253.885 117.927,254.990 115.275,254.990 114.859 C 254.990 114.674,255.211 114.051,255.481 113.475 C 255.751 112.899,256.149 111.848,256.366 111.140 C 257.236 108.289,258.444 105.165,259.065 104.160 C 260.466 101.890,262.422 99.625,263.726 98.762 C 264.234 98.426,265.113 97.825,265.679 97.426 C 266.246 97.027,267.579 96.279,268.641 95.764 C 270.296 94.962,270.811 94.761,271.739 94.557 C 271.814 94.540,272.138 94.711,272.458 94.935 " stroke="none" fill="#141414" fill-rule="evenodd"></path></g></svg>